<svg width="28" height="28" viewBox="0 0 28 28" fill="none" xmlns="http://www.w3.org/2000/svg">
<g id="about-us-list-Van 1">
<g id="Van">
<path id="Vector" d="M27.7889 12.5552L22.808 6.75172C22.6437 6.55549 22.4384 6.39766 22.2065 6.28937C21.9747 6.1811 21.7218 6.12499 21.4659 6.125H3.5C3.03587 6.125 2.59076 6.30938 2.26257 6.63757C1.93438 6.96576 1.75 7.41087 1.75 7.875V20.125C1.75 20.5891 1.93438 21.0343 2.26257 21.3625C2.59076 21.6906 3.03587 21.875 3.5 21.875H5.35937C5.55213 22.6279 5.98998 23.2952 6.6039 23.7717C7.2178 24.2483 7.97285 24.5069 8.75 24.5069C9.52715 24.5069 10.2822 24.2483 10.8961 23.7717C11.51 23.2952 11.9479 22.6279 12.1406 21.875H17.6093C17.8021 22.6279 18.24 23.2952 18.8539 23.7717C19.4678 24.2483 20.2229 24.5069 21 24.5069C21.7771 24.5069 22.5322 24.2483 23.1461 23.7717C23.76 23.2952 24.1979 22.6279 24.3907 21.875H26.25C26.7141 21.875 27.1593 21.6906 27.4875 21.3625C27.8156 21.0343 28 20.5891 28 20.125V13.125C28 12.9159 27.9251 12.7138 27.7889 12.5552ZM25.2207 12.25H19.25V7.875H21.4659L25.2207 12.25ZM11.375 12.25V7.875H17.5V12.25H11.375ZM9.625 7.875V12.25H3.5V7.875H9.625ZM8.75 22.75C8.40388 22.75 8.06554 22.6474 7.77776 22.455C7.48997 22.2628 7.26566 21.9895 7.13321 21.6698C7.00076 21.3499 6.96611 20.998 7.03363 20.6585C7.10115 20.3192 7.26782 20.0073 7.51257 19.7625C7.7573 19.5178 8.06912 19.3511 8.4086 19.2836C8.74805 19.2161 9.09993 19.2507 9.41969 19.3831C9.73946 19.5157 10.0128 19.74 10.2051 20.0277C10.3974 20.3155 10.5 20.6539 10.5 21C10.5 21.4641 10.3156 21.9093 9.98743 22.2375C9.65924 22.5656 9.21413 22.75 8.75 22.75ZM21 22.75C20.6539 22.75 20.3155 22.6474 20.0277 22.455C19.74 22.2628 19.5157 21.9895 19.3831 21.6698C19.2507 21.3499 19.2161 20.998 19.2836 20.6585C19.3511 20.3192 19.5178 20.0073 19.7625 19.7625C20.0073 19.5178 20.3192 19.3511 20.6585 19.2836C20.998 19.2161 21.3499 19.2507 21.6698 19.3831C21.9895 19.5157 22.2628 19.74 22.455 20.0277C22.6474 20.3155 22.75 20.6539 22.75 21C22.75 21.4641 22.5656 21.9093 22.2375 22.2375C21.9093 22.5656 21.4641 22.75 21 22.75ZM24.3907 20.125C24.1979 19.3721 23.76 18.7048 23.1461 18.2283C22.5322 17.7517 21.7771 17.4931 21 17.4931C20.2229 17.4931 19.4678 17.7517 18.8539 18.2283C18.24 18.7048 17.8021 19.3721 17.6093 20.125H12.1406C11.9479 19.3721 11.51 18.7048 10.8961 18.2283C10.2822 17.7517 9.52715 17.4931 8.75 17.4931C7.97285 17.4931 7.2178 17.7517 6.6039 18.2283C5.98998 18.7048 5.55213 19.3721 5.35937 20.125H3.5V14H26.25V20.125H24.3907Z" fill="black"/>
</g>
</g>
</svg>
