<svg width="28" height="27" viewBox="0 0 28 27" fill="none" xmlns="http://www.w3.org/2000/svg">
<g id="coins 1">
<g id="Coins">
<path id="Vector" d="M20.0555 9.44684V8.85938C20.0555 6.21421 16.1148 4.21875 10.8888 4.21875C5.66279 4.21875 1.72217 6.21421 1.72217 8.85938V13.0781C1.72217 15.2813 4.45655 17.0321 8.38883 17.5563V18.1406C8.38883 20.7858 12.3295 22.7812 17.5555 22.7812C22.7815 22.7812 26.7222 20.7858 26.7222 18.1406V13.9219C26.7222 11.7387 24.0743 9.98577 20.0555 9.44684ZM25.0555 13.9219C25.0555 15.3162 21.8482 16.875 17.5555 16.875C17.167 16.875 16.7815 16.8612 16.4014 16.836C18.6482 16.007 20.0555 14.6602 20.0555 13.0781V11.1523C23.167 11.6216 25.0555 12.8957 25.0555 13.9219ZM8.38883 15.8467V13.3376C9.21778 13.4469 10.0529 13.5012 10.8888 13.5C11.7248 13.5012 12.5599 13.4469 13.3888 13.3376V15.8467C12.5611 15.9705 11.7255 16.0322 10.8888 16.0312C10.0522 16.0322 9.21654 15.9705 8.38883 15.8467ZM18.3888 11.5942V13.0781C18.3888 13.963 17.0962 14.9133 15.0555 15.4902V13.0254C16.4003 12.6953 17.5388 12.2038 18.3888 11.5942ZM10.8888 5.90625C15.1815 5.90625 18.3888 7.46508 18.3888 8.85938C18.3888 10.2537 15.1815 11.8125 10.8888 11.8125C6.59613 11.8125 3.38883 10.2537 3.38883 8.85938C3.38883 7.46508 6.59613 5.90625 10.8888 5.90625ZM3.38883 13.0781V11.5942C4.23883 12.2038 5.37738 12.6953 6.72217 13.0254V15.4902C4.68155 14.9133 3.38883 13.963 3.38883 13.0781ZM10.0555 18.1406V17.7008C10.3295 17.7113 10.6066 17.7188 10.8888 17.7188C11.293 17.7188 11.6878 17.705 12.0753 17.6819C12.5058 17.8378 12.9443 17.9703 13.3888 18.0784V20.5527C11.3482 19.9758 10.0555 19.0255 10.0555 18.1406ZM15.0555 20.9092V18.3938C15.8842 18.5065 16.7194 18.5629 17.5555 18.5625C18.3915 18.5637 19.2266 18.5094 20.0555 18.4001V20.9092C18.3978 21.1553 16.7134 21.1553 15.0555 20.9092ZM21.7222 20.5527V18.0878C23.067 17.7578 24.2055 17.2662 25.0555 16.6567V18.1406C25.0555 19.0255 23.7628 19.9758 21.7222 20.5527Z" fill="black"/>
</g>
</g>
</svg>
