<svg width="24" height="24" viewBox="0 0 24 24" fill="none" xmlns="http://www.w3.org/2000/svg">
<g id="Dark mode">
<g id="Group">
<g id="Group_2">
<path id="Vector" d="M12 18.0621H6.57009C3.22204 18.0621 0.507935 15.3479 0.507935 11.9999C0.507935 8.65185 3.22204 5.93774 6.57009 5.93774H12C15.348 5.93774 15.348 18.0621 12 18.0621Z" fill="white"/>
<g id="Group_3">
<path id="Vector_2" d="M17.4299 5.93774H12V18.062H17.4299C20.778 18.062 23.4921 15.3479 23.4921 11.9999C23.4921 8.65185 20.778 5.93774 17.4299 5.93774Z" fill="#9DC6FB"/>
</g>
<g id="Group_4">
<path id="Vector_3" d="M6.08857 15.1586C7.83311 15.1586 9.24734 13.7444 9.24734 11.9998C9.24734 10.2553 7.83311 8.84106 6.08857 8.84106C4.34404 8.84106 2.92981 10.2553 2.92981 11.9998C2.92981 13.7444 4.34404 15.1586 6.08857 15.1586Z" fill="#1D75D9"/>
<g id="Group_5">
<g id="Group_6">
<path id="Vector_4" d="M17.5913 11.9998C17.5913 10.7782 18.5816 9.78794 19.8032 9.78794C19.9756 9.78794 20.1434 9.80767 20.3045 9.84503C19.7279 9.22727 18.9065 8.84106 17.9948 8.84106C16.2503 8.84106 14.8361 10.2553 14.8361 11.9998C14.8361 13.7444 16.2503 15.1586 17.9948 15.1586C18.9065 15.1586 19.7279 14.7723 20.3045 14.1546C20.1434 14.1919 19.9756 14.2117 19.8032 14.2117C18.5816 14.2116 17.5913 13.2213 17.5913 11.9998Z" fill="#FFDC1E"/>
</g>
</g>
</g>
</g>
</g>
</g>
</svg>
