<svg width="32" height="32" viewBox="0 0 32 32" fill="none" xmlns="http://www.w3.org/2000/svg">
<g id="group-3-line">
<path id="Vector" d="M11.3337 9.33333C11.3337 10.8061 10.1398 12 8.66699 12C7.19423 12 6.00033 10.8061 6.00033 9.33333C6.00033 7.86057 7.19423 6.66667 8.66699 6.66667C10.1398 6.66667 11.3337 7.86057 11.3337 9.33333ZM3.33366 9.33333C3.33366 12.2789 5.72147 14.6667 8.66699 14.6667C11.6125 14.6667 14.0003 12.2789 14.0003 9.33333C14.0003 6.38781 11.6125 4 8.66699 4C5.72147 4 3.33366 6.38781 3.33366 9.33333ZM12.0003 22C12.0003 20.1591 10.5079 18.6667 8.66699 18.6667C6.82605 18.6667 5.33366 20.1591 5.33366 22V25.3333H12.0003V22ZM14.667 28H2.66699V22C2.66699 18.6863 5.35329 16 8.66699 16C11.9807 16 14.667 18.6863 14.667 22V28ZM26.0003 9.33333C26.0003 10.8061 24.8065 12 23.3337 12C21.8609 12 20.667 10.8061 20.667 9.33333C20.667 7.86057 21.8609 6.66667 23.3337 6.66667C24.8065 6.66667 26.0003 7.86057 26.0003 9.33333ZM18.0003 9.33333C18.0003 12.2789 20.3882 14.6667 23.3337 14.6667C26.2791 14.6667 28.667 12.2789 28.667 9.33333C28.667 6.38781 26.2791 4 23.3337 4C20.3882 4 18.0003 6.38781 18.0003 9.33333ZM26.667 22C26.667 20.1591 25.1746 18.6667 23.3337 18.6667C21.4927 18.6667 20.0003 20.1591 20.0003 22V25.3333H26.667V22ZM17.3337 25.3333V22C17.3337 18.6863 20.0199 16 23.3337 16C26.6474 16 29.3337 18.6863 29.3337 22V28H17.3337V25.3333Z" fill="black"/>
</g>
</svg>
