<svg width="80" height="80" viewBox="0 0 80 80" fill="none" xmlns="http://www.w3.org/2000/svg">
<g id="House" clip-path="url(#clip0_2_156)">
<path id="Vector" d="M69.5444 20.6983C75.2236 20.6983 79.8441 16.078 79.8441 10.3986C79.8441 4.71923 75.2237 0.098877 69.5444 0.098877C63.8651 0.098877 59.2446 4.71938 59.2446 10.3986C59.2446 16.0778 63.8651 20.6983 69.5444 20.6983ZM69.5444 4.77708C72.6441 4.77708 75.1657 7.29888 75.1657 10.3986C75.1657 13.4982 72.6441 16.02 69.5444 16.02C66.4448 16.02 63.923 13.4983 63.923 10.3986C63.923 7.29888 66.4448 4.77708 69.5444 4.77708Z" fill="black"/>
<path id="Vector_2" d="M77.6608 75.2229H75.9895V54.3459C76.4285 54.7198 76.9669 54.9054 77.5041 54.9054C78.1499 54.9054 78.7927 54.6395 79.2549 54.1185C80.1123 53.1521 80.0237 51.6736 79.0573 50.8163L72.2001 44.7334V32.6103C72.2001 31.3185 71.1527 30.2712 69.8609 30.2712C68.569 30.2712 67.5217 31.3185 67.5217 32.6103V40.5832L55.2554 29.7018V17.595C55.2554 7.96036 47.4171 0.12207 37.7825 0.12207C28.1478 0.12207 20.3096 7.96036 20.3096 17.595V22.6758C17.7489 17.9014 15.2798 14.528 15.0662 14.2387C14.6252 13.6418 13.927 13.2896 13.1849 13.2896C12.4427 13.2896 11.7446 13.6419 11.3035 14.2387C10.8482 14.8552 0.150799 29.476 0.150799 41.8189C0.150799 47.8432 1.3522 53.5438 3.53372 57.8704C5.45809 61.687 7.99906 64.1488 10.8457 65.0174V75.2227H2.33918C1.04733 75.2227 0 76.2701 0 77.5619C0 78.8538 1.04733 79.9011 2.33918 79.9011H77.6608C78.9527 79.9011 80 78.8538 80 77.5619C80 76.2702 78.9527 75.2229 77.6608 75.2229ZM40.2274 75.2229H35.549V57.8465H40.2274V75.2229ZM42.5666 53.1682H33.2098C31.918 53.1682 30.8706 54.2155 30.8706 55.5073V75.2229H26.1923V50.1988L48.7517 30.1865L71.3112 50.1988V75.2229H44.9057V55.5073C44.9057 54.2155 43.8586 53.1682 42.5666 53.1682ZM24.9878 17.595C24.9878 10.54 30.7273 4.80043 37.7823 4.80043C44.8373 4.80043 50.5768 10.54 50.5768 17.595V25.5516L50.3041 25.3096C49.4183 24.5239 48.0851 24.5239 47.1995 25.3096L40.0037 31.6929V19.2563C40.0037 17.9644 38.9564 16.9171 37.6646 16.9171C36.3727 16.9171 35.3254 17.9644 35.3254 19.2563V26.3859L33.7665 24.8115C32.8575 23.8935 31.3767 23.8861 30.4585 24.7951C29.5404 25.7041 29.5331 27.1852 30.4421 28.1032L35.3254 33.0354V35.8432L27.9094 42.4218C27.2034 41.5184 26.5288 40.5096 26.1118 39.6324C25.9322 37.7207 25.5329 35.7785 24.9878 33.8627V17.595ZM7.71072 55.7642C5.85232 52.0784 4.82869 47.1259 4.82869 41.8191C4.82869 33.9387 10.2294 24.4218 13.1857 19.803C15.2861 23.081 18.6163 28.8273 20.3704 34.7112C20.3917 34.8046 20.4195 34.8956 20.4518 34.9845C21.1203 37.294 21.5403 39.619 21.5403 41.8192C21.5403 44.1743 21.3377 46.4588 20.9511 48.5946L18.4463 50.8165C17.4799 51.6737 17.3913 53.1523 18.2487 54.1186C18.5003 54.4022 18.8061 54.608 19.1361 54.7387C18.9829 55.0892 18.8253 55.4336 18.6584 55.7643C17.0798 58.8953 15.0846 60.6908 13.1846 60.6908C11.2845 60.6908 9.28936 58.8951 7.71072 55.7642ZM15.5237 65.0175C17.7594 64.3353 19.806 62.6694 21.5139 60.1369V75.2227H15.5237V65.0175Z" fill="black"/>
<path id="Vector_3" d="M52.2571 69.1507H63.5613C64.8532 69.1507 65.9005 68.1034 65.9005 66.8116V55.5074C65.9005 54.2155 64.8532 53.1682 63.5613 53.1682H52.2571C50.9653 53.1682 49.918 54.2155 49.918 55.5074V66.8116C49.918 68.1034 50.9653 69.1507 52.2571 69.1507ZM54.5963 57.8466H61.2221V64.4724H54.5963V57.8466Z" fill="black"/>
</g>
<defs>
<clipPath id="clip0_2_156">
<rect width="80" height="80" fill="white"/>
</clipPath>
</defs>
</svg>
