<svg width="72" height="72" viewBox="0 0 72 72" fill="none" xmlns="http://www.w3.org/2000/svg">
<g id="Job" clip-path="url(#clip0_42_1506)">
<g id="Group">
<path id="Vector" d="M67.5336 60.0223C67.3915 61.8925 67.2207 63.7614 67.0223 65.6316C67.0034 65.8084 66.9846 65.9852 66.9657 66.1618C66.6862 68.7448 64.616 70.7701 62.0257 70.9743C44.6747 72.3419 27.3253 72.3419 9.97444 70.9743C7.38425 70.7701 5.31396 68.7448 5.03439 66.1618C5.01555 65.9866 4.9967 65.8098 4.97786 65.6344C4.97786 65.633 4.97786 65.633 4.97786 65.6315C4.77944 63.7612 4.60844 61.8924 4.46655 60.0222C3.54235 48.0242 3.73206 36.0276 5.03439 24.0296C5.31396 21.4466 7.38411 19.4213 9.97444 19.2171C27.3254 17.8495 44.6748 17.8495 62.0257 19.2171C64.6159 19.4214 66.6862 21.4466 66.9657 24.0296C68.2681 36.0278 68.4578 48.0243 67.5336 60.0223Z" fill="#F6E266"/>
<path id="Vector_2" d="M11.1045 71.0599C10.7263 71.0324 10.3511 71.0048 9.97454 70.9744C7.38435 70.7703 5.3142 68.745 5.03449 66.1605C3.51194 52.1185 3.51194 38.0736 5.03449 24.03C4.8462 26.174 5.94716 29.0483 7.92604 32.1948C7.18438 43.8044 7.4437 55.4128 8.70258 67.0238C8.88511 68.7029 9.79187 70.1545 11.1045 71.0599Z" fill="#FFC250"/>
<path id="Vector_3" d="M67.5335 60.0222C67.3915 61.8924 67.2206 63.7613 67.0222 65.6315C67.0034 62.0184 63.0021 55.8558 56.6511 49.7178C56.2194 49.3006 56.2079 48.6125 56.6251 48.1808C57.0423 47.749 57.7304 47.7375 58.1621 48.1547C61.5042 51.3853 64.2958 54.71 66.2355 57.7697C66.7296 58.5489 67.1627 59.2993 67.5335 60.0222Z" fill="#FFC250"/>
<path id="Vector_4" d="M66.9655 24.03C67.2827 27.6531 63.9204 33.361 58.8601 38.9427C57.2187 40.7521 55.4007 42.5469 53.4696 44.2536C52.3701 45.2256 51.2342 46.1687 50.0739 47.0697C45.4946 50.6277 40.5446 53.5163 36 54.8738C31.5351 53.5409 26.6835 50.7305 22.1708 47.261C19.0678 44.8722 16.1254 42.1733 13.5831 39.4266C13.4484 39.2803 13.315 39.1369 13.1847 38.9919C8.09838 33.3957 4.71563 27.6632 5.03443 24.03C5.31399 21.447 7.38414 19.4217 9.97447 19.2175C27.3253 17.8499 44.6747 17.8499 62.0256 19.2175C64.6156 19.4217 66.6858 21.447 66.9655 24.03Z" fill="#E7A561"/>
<path id="Vector_5" d="M15.349 49.7178C8.99791 55.8558 4.99671 62.0186 4.97787 65.6315C4.77944 63.7612 4.60844 61.8924 4.46655 60.0223C4.83738 59.2993 5.27051 58.5489 5.76452 57.7696C7.7043 54.71 10.4958 51.3852 13.8395 48.1546C14.2698 47.7374 14.9579 47.7491 15.3751 48.1807C15.7922 48.6125 15.7807 49.3006 15.349 49.7178Z" fill="#FFC250"/>
<path id="Vector_6" d="M63.3033 33.3666V33.368C62.0633 35.1846 60.5566 37.0708 58.8603 38.9425C57.2189 40.752 55.4009 42.5469 53.4696 44.2534C52.3701 45.2254 51.2343 46.1686 50.074 47.0696C45.4946 50.6276 40.5444 53.5163 36 54.8736C31.5351 53.5408 26.6835 50.7304 22.1708 47.2607C20.5295 45.9974 18.9345 44.6473 17.4191 43.2493C17.1633 43.0138 17.5721 42.4009 17.3212 42.1629C16.9255 41.7872 15.8739 41.7844 15.491 41.4024C14.8347 40.749 14.1974 40.0899 13.5831 39.4263C13.4484 39.28 13.3151 39.1366 13.1847 38.9916C11.4695 37.104 9.94834 35.2019 8.69663 33.3692V33.3678C8.63293 24.344 8.96607 15.3216 9.69761 6.29765C9.91923 3.55826 12.0691 1.37209 14.8027 1.08957C28.9347 -0.363516 43.0652 -0.363516 57.1971 1.08957C59.9307 1.37209 62.0806 3.55812 62.3022 6.29765C63.0339 15.3202 63.367 24.3426 63.3033 33.3666Z" fill="#F9F6F6"/>
<g id="Group_2">
<path id="Vector_7" d="M27.8415 64.349C26.3618 64.349 25.5535 63.7118 24.9632 63.2466C24.46 62.85 24.1563 62.6106 23.4301 62.6106C22.704 62.6106 22.4003 62.8499 21.897 63.2466C21.3066 63.7118 20.4983 64.349 19.0187 64.349C17.5391 64.349 16.731 63.7118 16.1406 63.2466C15.6376 62.85 15.3339 62.6106 14.608 62.6106C14.0079 62.6106 13.5215 62.1241 13.5215 61.5241C13.5215 60.924 14.0079 60.4376 14.608 60.4376C16.0875 60.4376 16.8956 61.0748 17.486 61.54C17.989 61.9365 18.2927 62.176 19.0187 62.176C19.7448 62.176 20.0486 61.9367 20.5518 61.54C21.1421 61.0748 21.9504 60.4376 23.4299 60.4376C24.9094 60.4376 25.7177 61.0748 26.3081 61.54C26.8112 61.9367 27.115 62.176 27.8412 62.176C28.4412 62.176 28.9277 62.6625 28.9277 63.2625C28.9277 63.8625 28.4415 64.349 27.8415 64.349Z" fill="#9DC6FB"/>
<path id="Vector_8" d="M27.8415 59.9464C26.3618 59.9464 25.5535 59.3092 24.9632 58.844C24.46 58.4475 24.1563 58.208 23.4301 58.208C22.704 58.208 22.4003 58.4473 21.897 58.844C21.3066 59.3092 20.4983 59.9464 19.0187 59.9464C17.5391 59.9464 16.731 59.3092 16.1406 58.844C15.6376 58.4475 15.3339 58.208 14.608 58.208C14.0079 58.208 13.5215 57.7216 13.5215 57.1215C13.5215 56.5215 14.0079 56.035 14.608 56.035C16.0875 56.035 16.8956 56.6722 17.486 57.1374C17.989 57.534 18.2927 57.7734 19.0187 57.7734C19.7448 57.7734 20.0486 57.5341 20.5518 57.1374C21.1421 56.6722 21.9504 56.035 23.4299 56.035C24.9094 56.035 25.7177 56.6722 26.3081 57.1374C26.8112 57.5341 27.115 57.7734 27.8412 57.7734C28.4412 57.7734 28.9277 58.2599 28.9277 58.8599C28.9277 59.46 28.4415 59.9464 27.8415 59.9464Z" fill="#9DC6FB"/>
</g>
<path id="Vector_9" d="M41.1547 26.5652H15.3421C14.742 26.5652 14.2556 26.0788 14.2556 25.4787C14.2556 24.8787 14.742 24.3923 15.3421 24.3923H41.1548C41.7549 24.3923 42.2413 24.8787 42.2413 25.4787C42.2413 26.0788 41.7547 26.5652 41.1547 26.5652Z" fill="#80B4FB"/>
<path id="Vector_10" d="M56.7854 37.6194H15.3421C14.742 37.6194 14.2556 37.1329 14.2556 36.5329C14.2556 35.9328 14.742 35.4464 15.3421 35.4464H56.7854C57.3854 35.4464 57.8718 35.9328 57.8718 36.5329C57.8718 37.1329 57.3854 37.6194 56.7854 37.6194Z" fill="#80B4FB"/>
<g id="Group_3">
<path id="Vector_11" d="M50.907 42.163C50.907 42.7628 50.4217 43.2495 49.8205 43.2495H17.4192C16.7601 42.6426 16.1169 42.0268 15.491 41.4024C15.688 41.201 15.9632 41.0764 16.266 41.0764H49.8204C50.4217 41.0764 50.907 41.5633 50.907 42.163Z" fill="#9DC6FB"/>
<path id="Vector_12" d="M29.6026 31.3264H15.3421C14.742 31.3264 14.2556 30.84 14.2556 30.2399C14.2556 29.6399 14.742 29.1534 15.3421 29.1534H29.6026C30.2026 29.1534 30.6891 29.6399 30.6891 30.2399C30.6891 30.84 30.2026 31.3264 29.6026 31.3264Z" fill="#9DC6FB"/>
</g>
</g>
</g>
<defs>
<clipPath id="clip0_42_1506">
<rect width="72" height="72" fill="white"/>
</clipPath>
</defs>
</svg>
