<svg width="161" height="60" viewBox="0 0 161 60" fill="none" xmlns="http://www.w3.org/2000/svg">
<g id="Group 35">
<path id="Object 5" d="M14.1671 35.4049C9.72399 28.7453 20.9798 22.7701 29.7537 19.7774C39.6715 16.4068 48.7415 15.6101 58.7614 13.506C51.1724 14.0065 38.5275 15.1811 40.8971 12.3927C43.2259 10.2988 65.6763 4.24193 70.2011 3.52695C84.0105 1.35137 87.136 4.09894 98.1467 6.82608C95.0314 7.11207 93.5299 7.2755 89.2707 7.76577C88.6272 7.53085 87.7897 4.00701 81.6613 5.59018C80.1292 10.1456 82.7644 9.99242 86.758 9.52258C90.2002 9.11402 93.6321 8.74631 97.0538 8.35818C113.743 6.44816 140.974 -1.06935 154.385 11.9229L160.064 10.7687C158.215 7.87812 147.399 4.76285 141.137 3.58824C130.065 1.52501 118.85 3.29203 107.666 5.27355C105.47 5.6719 101.63 3.9253 98.3203 3.06732C90.2717 0.983665 86.7172 -0.548438 78.4336 0.186971C65.9725 1.3003 50.0387 5.79447 35.9025 12.1067C28.8548 15.2629 22.2259 18.6335 16.6899 21.759C11.7157 24.5678 8.92729 27.3154 8.55959 29.2663C8.32467 31.6359 11.5217 33.7808 14.1671 35.4049Z" fill="#1E1E1E"/>
<path id="Object 6" d="M52.7456 28.0197C53.8283 25.5479 53.4095 22.688 51.4178 20.7371L109.862 9.33827L106.093 9.0625C88.893 11.9837 71.7232 14.5168 54.3901 16.4779C49.8244 16.9886 44.3803 17.4176 39.9985 18.2755C44.3293 18.5002 51.6323 20.1345 52.7456 28.0197Z" fill="#1E1E1E"/>
<path id="Object 7" d="M117.431 16.4985C118.953 13.2096 121.844 10.462 125.153 8.97074C130.097 6.74408 135.541 7.78591 139.687 11.8307L141.975 11.4119C139.483 7.51014 131.976 4.43572 125.439 7.00965C121.282 8.65411 118.32 12.086 117.431 16.4985Z" fill="#1E1E1E"/>
<path id="Object 8" d="M24.0137 33.8416C24.8104 31.0838 27.9971 26.988 34.34 25.7725C38.681 24.9452 42.8994 26.2628 46.1474 29.5006L48.3945 28.9388C46.2904 25.6295 40.2131 22.9943 34.7588 23.9442C29.1002 24.9349 24.5039 29.8275 24.0137 33.8416Z" fill="#1E1E1E"/>
<path id="Object 9" fill-rule="evenodd" clip-rule="evenodd" d="M75.4818 48.9388L85.9307 46.9573C85.9171 47.0662 85.8967 47.2058 85.8695 47.3761C85.8422 47.5395 85.815 47.7131 85.7878 47.897C85.7605 48.074 85.7333 48.2477 85.706 48.4179C85.6788 48.5881 85.655 48.7414 85.6345 48.8775C85.6005 49.1567 85.4439 49.3235 85.1647 49.378L81.9269 49.9909C81.8588 50.0045 81.8179 50.0453 81.8043 50.1134C81.7975 50.1815 81.8247 50.2326 81.886 50.2666L82.8155 50.8386L81.9473 56.7117C81.9064 56.9909 81.7498 57.1543 81.4774 57.202L78.832 57.7024L79.9249 50.3688L76.1355 51.0838C76.1423 51.0565 76.1593 50.968 76.1866 50.8182C76.2206 50.6752 76.2547 50.5186 76.2887 50.3483C76.3228 50.1781 76.3568 50.0147 76.3909 49.8581C76.4249 49.7015 76.4419 49.6061 76.4419 49.5721L75.4614 49.2248C75.3865 49.1908 75.3524 49.1363 75.3592 49.0614C75.3661 48.9933 75.4069 48.9524 75.4818 48.9388ZM86.135 56.3235C86.1759 55.9967 86.2338 55.5949 86.3087 55.1183C86.3768 54.6416 86.4517 54.1309 86.5334 53.5862C86.6151 53.0346 86.7002 52.4695 86.7887 51.8907C86.8841 51.3051 86.9726 50.7433 87.0543 50.2054C87.1292 49.6606 87.2041 49.1533 87.279 48.6835C87.3539 48.2136 87.4118 47.8153 87.4526 47.4884L86.5742 47.1105C86.5061 47.0765 86.4789 47.0254 86.4925 46.9573C86.4993 46.8892 86.5436 46.8449 86.6253 46.8245L95.3787 45.1698C95.7124 45.1086 96.0256 45.1018 96.3184 45.1494C96.6112 45.1971 96.8597 45.2958 97.064 45.4456C97.2615 45.5954 97.4113 45.7929 97.5134 46.038C97.6156 46.2832 97.6428 46.5658 97.5952 46.8858C97.5203 47.4306 97.459 47.8868 97.4113 48.2545C97.3636 48.6222 97.3058 48.9422 97.2377 49.2146C97.1696 49.487 97.0776 49.7321 96.9619 49.95C96.8461 50.1679 96.6759 50.4028 96.4512 50.6548C96.2605 50.8659 96.0528 51.0361 95.8281 51.1655C95.6102 51.2948 95.3991 51.3936 95.1949 51.4617C94.9906 51.5298 94.8135 51.5808 94.6637 51.6149C94.5139 51.6489 94.4152 51.6762 94.3675 51.6966L96.0835 53.5351C96.1584 53.6168 96.206 53.7088 96.2265 53.8109C96.2469 53.913 96.2435 54.0118 96.2163 54.1071C96.1822 54.2024 96.1277 54.2876 96.0528 54.3625C95.9779 54.4374 95.8826 54.485 95.7668 54.5055L93.3155 54.9651L91.1603 52.2992L89.6997 52.575L89.2912 55.3226C89.2503 55.6018 89.0937 55.7686 88.8213 55.8231L86.135 56.3235ZM89.2912 48.8571C89.3797 48.9116 89.475 48.9661 89.5772 49.0205C89.6861 49.075 89.7814 49.1329 89.8631 49.1942C89.9108 49.2282 89.9619 49.2589 90.0164 49.2861C90.064 49.3133 90.1151 49.344 90.1696 49.378L90.0266 50.3279L94.0407 49.5721C94.1837 49.5448 94.262 49.4699 94.2756 49.3474L94.2858 49.2248C94.2994 49.1908 94.3062 49.1465 94.3062 49.092C94.313 49.0444 94.3199 48.9899 94.3267 48.9286C94.3471 48.806 94.3641 48.6801 94.3777 48.5507C94.3982 48.4213 94.4186 48.2953 94.439 48.1728C94.4458 48.1047 94.456 48.0366 94.4697 47.9685C94.4833 47.9072 94.4935 47.8425 94.5003 47.7744C94.5275 47.6519 94.4731 47.6042 94.3369 47.6314L89.3422 48.5813C89.2741 48.5949 89.2367 48.6358 89.2299 48.7039C89.2163 48.772 89.2367 48.8231 89.2912 48.8571ZM98.5348 53.9743C98.5689 53.6883 98.62 53.3172 98.688 52.861C98.7493 52.4048 98.8242 51.9043 98.9128 51.3595C98.9945 50.808 99.0796 50.2326 99.1681 49.6334C99.2566 49.0341 99.3417 48.4553 99.4235 47.897C99.5052 47.3386 99.5835 46.8211 99.6584 46.3445C99.7265 45.8678 99.7809 45.4729 99.8218 45.1596L98.923 44.7613C98.8549 44.7341 98.8276 44.683 98.8413 44.6081C98.8481 44.54 98.8855 44.4991 98.9536 44.4855L110.352 42.3303C110.325 42.5414 110.278 42.8785 110.209 43.3415C110.148 43.8046 110.073 44.3289 109.985 44.9145C109.896 45.5069 109.808 46.1334 109.719 46.7939C109.631 47.4544 109.546 48.0945 109.464 48.7141C109.375 49.3269 109.297 49.8853 109.229 50.3892C109.161 50.8999 109.106 51.2948 109.065 51.574C109.031 51.8532 108.875 52.02 108.596 52.0745L105.909 52.575L106.297 50.236L101.926 51.0633L101.65 52.9836C101.609 53.2559 101.453 53.4194 101.18 53.4738L98.5348 53.9743ZM102.222 49.1022L106.594 48.2749L106.982 45.5682C107.016 45.3435 106.904 45.255 106.645 45.3026L101.987 46.181C101.919 46.1947 101.882 46.2389 101.875 46.3138C101.861 46.3819 101.885 46.433 101.946 46.467L102.559 46.8347L102.222 49.1022ZM111.241 42.1669L115.01 41.4519L116.583 45.5478L116.777 47.3454C116.777 47.4135 116.815 47.4544 116.889 47.468C116.964 47.4816 117.019 47.4578 117.053 47.3965C117.448 46.6951 117.795 46.0755 118.095 45.5375C118.401 44.9996 118.694 44.4787 118.973 43.9748C119.252 43.4709 119.545 42.95 119.851 42.4121C120.158 41.8741 120.515 41.2477 120.924 40.5327C121.033 40.3829 121.169 40.291 121.333 40.2569L124.335 39.6849C124.226 39.8688 124.07 40.1412 123.866 40.5021C123.661 40.8561 123.423 41.2647 123.151 41.7277C122.871 42.1908 122.575 42.6981 122.262 43.2496C121.949 43.7944 121.632 44.3459 121.312 44.9043C120.985 45.4627 120.665 46.0108 120.352 46.5487C120.039 47.0867 119.749 47.5872 119.484 48.0502C119.211 48.5132 118.976 48.915 118.779 49.2555C118.575 49.6027 118.422 49.8615 118.319 50.0317C118.238 50.1815 118.101 50.2735 117.911 50.3075L115.173 50.8284C115.085 50.5969 114.956 50.253 114.785 49.7968C114.615 49.3474 114.428 48.8469 114.224 48.2953C114.026 47.7506 113.815 47.182 113.59 46.5896C113.366 46.004 113.158 45.4524 112.967 44.9349C112.777 44.4242 112.606 43.9782 112.457 43.5969C112.307 43.2156 112.208 42.9602 112.16 42.8308C112.092 42.7968 112.051 42.7764 112.038 42.7696C112.031 42.7696 112.011 42.7628 111.976 42.7491C111.942 42.7287 111.874 42.7015 111.772 42.6674C111.67 42.6266 111.486 42.5517 111.221 42.4427C111.153 42.4087 111.122 42.361 111.129 42.2997C111.136 42.2316 111.173 42.1874 111.241 42.1669ZM124.836 47.2944L125.847 40.2263C125.827 40.1922 125.725 40.1377 125.541 40.0628C125.364 39.9811 125.183 39.9062 124.999 39.8381C124.931 39.8041 124.901 39.753 124.907 39.6849C124.921 39.6168 124.962 39.576 125.03 39.5624L135.326 37.6115L135.05 39.5317C135.002 39.8109 134.842 39.9743 134.57 40.022L127.788 41.3089C127.72 41.3226 127.682 41.3634 127.675 41.4315C127.662 41.4996 127.686 41.5507 127.747 41.5847L128.564 42.0852L128.472 42.6572L132.915 41.8196L132.68 43.362C132.633 43.6412 132.476 43.808 132.21 43.8625L127.573 44.7306C127.505 44.7443 127.468 44.7851 127.461 44.8532C127.447 44.9145 127.468 44.9622 127.522 44.9962L128.084 45.3537L127.961 46.1402L134.253 44.9451L133.957 46.8756C133.923 47.148 133.766 47.3114 133.487 47.3659L126.317 48.7243C126.113 48.7584 125.912 48.7448 125.714 48.6835C125.517 48.6222 125.35 48.5234 125.214 48.3873C125.078 48.2579 124.972 48.0945 124.897 47.897C124.829 47.7063 124.809 47.5055 124.836 47.2944ZM136.265 46.8347C136.449 45.5818 136.609 44.5162 136.745 43.6377C136.875 42.7593 136.991 41.9865 137.093 41.3192C137.188 40.6587 137.277 40.0697 137.358 39.5521C137.433 39.0346 137.508 38.5205 137.583 38.0098L136.684 37.6217C136.616 37.5945 136.589 37.5434 136.602 37.4685C136.616 37.4004 136.657 37.3595 136.725 37.3459L140.749 36.5901C140.62 37.4344 140.508 38.1869 140.412 38.8474C140.31 39.5079 140.222 40.0935 140.147 40.6042C140.079 41.1149 140.014 41.5609 139.953 41.9422C139.898 42.3235 139.851 42.6674 139.81 42.9738L139.708 43.0964C139.673 43.1509 139.616 43.2258 139.534 43.3211C139.459 43.4233 139.353 43.5628 139.217 43.7399C139.176 43.7944 139.173 43.8522 139.207 43.9135C139.241 43.9748 139.296 43.9986 139.37 43.985L144.917 42.933C144.903 43.0351 144.883 43.1679 144.855 43.3313C144.828 43.4879 144.798 43.6582 144.763 43.842C144.736 44.0191 144.712 44.1995 144.692 44.3834C144.665 44.5604 144.641 44.717 144.62 44.8532C144.586 45.1324 144.43 45.2958 144.151 45.3435L136.265 46.8347ZM146.326 43.0249C146.347 42.9091 146.398 42.8104 146.479 42.7287C146.561 42.6402 146.663 42.5857 146.786 42.5653L153.098 41.3702C153.241 41.3566 153.319 41.2885 153.333 41.166L153.486 40.0935C153.513 39.9777 153.459 39.9335 153.323 39.9607L148.91 40.7982C148.57 40.8595 148.253 40.8663 147.96 40.8187C147.661 40.771 147.409 40.6723 147.205 40.5225C147 40.3727 146.847 40.1752 146.745 39.9301C146.643 39.6849 146.619 39.3955 146.673 39.0619L146.888 37.5604C146.929 37.2608 147.017 36.968 147.154 36.682C147.297 36.4028 147.477 36.1441 147.695 35.9057C147.913 35.6674 148.172 35.4631 148.471 35.2929C148.771 35.1227 149.101 35.0035 149.462 34.9354L156.939 33.5259C156.891 33.8732 156.847 34.1898 156.806 34.4758C156.772 34.7618 156.734 35.0784 156.693 35.4257C156.659 35.7117 156.503 35.8785 156.224 35.9262L149.053 37.2846C148.985 37.2983 148.944 37.3391 148.931 37.4072C148.924 37.4753 148.951 37.5264 149.012 37.5604L149.789 38.0405L149.738 38.3775C149.724 38.4865 149.782 38.5307 149.911 38.5103L154.334 37.6728C154.674 37.6115 154.991 37.6047 155.284 37.6523C155.57 37.7 155.818 37.7953 156.029 37.9383C156.234 38.0881 156.387 38.2856 156.489 38.5307C156.591 38.7759 156.615 39.0653 156.561 39.3989L156.346 40.9106C156.292 41.2034 156.203 41.4928 156.081 41.7788C155.958 42.058 155.791 42.3133 155.58 42.5449C155.376 42.7764 155.131 42.9772 154.845 43.1475C154.559 43.3177 154.228 43.4403 153.854 43.5152L145.907 45.0166L146.326 43.0249Z" fill="#1E1E1E"/>
<path id="Object 10" d="M0.225196 42.7997L7.72228 41.3901L10.8273 49.5205L11.2053 53.075C11.2121 53.218 11.2904 53.3031 11.4402 53.3303C11.59 53.3575 11.6955 53.3099 11.7568 53.1873C12.5467 51.7914 13.2412 50.5623 13.8405 49.5001C14.4397 48.4378 15.0185 47.4028 15.5768 46.395C16.1352 45.394 16.7174 44.359 17.3235 43.2899C17.9295 42.2277 18.6411 40.9884 19.4582 39.572C19.6693 39.2656 19.9382 39.0818 20.2651 39.0205L26.2403 37.8867C26.0224 38.2476 25.7091 38.7822 25.3006 39.4903C24.892 40.1985 24.4154 41.0156 23.8706 41.9417C23.3259 42.8609 22.7403 43.8619 22.1138 44.9446C21.4942 46.0341 20.8609 47.1338 20.214 48.2437C19.5739 49.3537 18.9407 50.4431 18.3142 51.5122C17.6877 52.5813 17.1089 53.5754 16.5778 54.4947C16.0535 55.414 15.5871 56.2141 15.1785 56.895C14.7768 57.5759 14.4737 58.0866 14.2695 58.4271C14.1128 58.7199 13.8439 58.9037 13.4625 58.9787L8.0287 60.0001C7.85166 59.537 7.59631 58.8561 7.26265 57.9572C6.92218 57.0652 6.55107 56.0745 6.14932 54.985C5.74757 53.8955 5.32539 52.7651 4.88278 51.5939C4.44017 50.4227 4.02821 49.3264 3.64689 48.305C3.26557 47.2836 2.9285 46.395 2.6357 45.6392C2.3429 44.8833 2.14543 44.3726 2.04329 44.1071C1.9071 44.0458 1.8288 44.0117 1.80837 44.0049C1.79475 44.0049 1.75389 43.9879 1.6858 43.9538C1.6109 43.9198 1.47471 43.8653 1.27724 43.7904C1.07296 43.7087 0.712065 43.5589 0.194555 43.341C0.0583682 43.2797 -0.00632297 43.1844 0.000486365 43.055C0.014105 42.9256 0.089009 42.8405 0.225196 42.7997Z" fill="#1E1E1E"/>
<path id="Object 11" fill-rule="evenodd" clip-rule="evenodd" d="M26.2402 56.5379C26.3288 55.8774 26.4445 55.0773 26.5875 54.1376C26.7305 53.1911 26.8837 52.1731 27.0471 51.0837C27.2038 50.001 27.374 48.8808 27.5578 47.7232C27.7349 46.5657 27.9051 45.4489 28.0685 44.373C28.232 43.2904 28.3852 42.2826 28.5282 41.3497C28.6712 40.4168 28.7869 39.6303 28.8755 38.9903L27.1391 38.2242C27.0029 38.1629 26.9416 38.0642 26.9552 37.928C26.9756 37.7918 27.0642 37.7067 27.2208 37.6727L44.605 34.394C45.2723 34.2646 45.8954 34.2476 46.4742 34.3429C47.053 34.4382 47.5433 34.6357 47.945 34.9353C48.3536 35.2349 48.6566 35.6265 48.8541 36.1099C49.0515 36.6002 49.1026 37.1654 49.0073 37.8054C48.8575 38.8813 48.7349 39.7836 48.6396 40.5122C48.551 41.2408 48.4353 41.8774 48.2923 42.4222C48.1561 42.9601 47.9722 43.447 47.7407 43.8828C47.516 44.3186 47.1824 44.7816 46.7398 45.2719C46.3584 45.7009 45.9465 46.0413 45.5039 46.2933C45.0613 46.5452 44.6425 46.7393 44.2475 46.8755C43.8458 47.0185 43.4951 47.1206 43.1955 47.1819C42.8959 47.25 42.695 47.3011 42.5929 47.3351L46.0043 50.9917C46.161 51.1551 46.2597 51.339 46.3006 51.5433C46.3346 51.7544 46.321 51.9553 46.2597 52.1459C46.1984 52.3298 46.0929 52.4966 45.9431 52.6464C45.7933 52.7894 45.606 52.8813 45.3813 52.9222L40.6318 53.821C40.6658 53.5895 40.6828 53.3546 40.6828 53.1162C40.6828 50.481 38.5481 48.3463 35.9129 48.3463C34.9834 48.3463 34.1152 48.6119 33.3798 49.0817L33.3185 49.0919V49.1226C32.0112 49.9703 31.1532 51.4411 31.1532 53.1162C31.1532 53.9742 31.3779 54.7811 31.7762 55.4757C31.715 55.4961 31.6469 55.5131 31.572 55.5267L26.2402 56.5379ZM32.5219 41.7174C32.6989 41.8264 32.893 41.9387 33.1041 42.0545C33.3083 42.1634 33.4922 42.2758 33.6556 42.3915C33.7578 42.4596 33.8599 42.5209 33.962 42.5754C34.0574 42.623 34.1561 42.6809 34.2582 42.749L33.9722 44.6488L41.9596 43.1372C42.2388 43.0895 42.392 42.9465 42.4192 42.7082L42.4499 42.463C42.4703 42.3881 42.4839 42.2996 42.4907 42.1975C42.4975 42.1021 42.5077 41.9898 42.5214 41.8604C42.5622 41.6221 42.5997 41.3735 42.6337 41.1148C42.6678 40.8628 42.7052 40.6177 42.7461 40.3794C42.7529 40.2364 42.7733 40.1002 42.8074 39.9708C42.8346 39.8414 42.855 39.7121 42.8686 39.5827C42.9299 39.3375 42.821 39.2422 42.5418 39.2967L32.624 41.1659C32.4878 41.1931 32.4095 41.2748 32.3891 41.411C32.3755 41.5472 32.4197 41.6493 32.5219 41.7174Z" fill="#F02C18"/>
<path id="Object 12" fill-rule="evenodd" clip-rule="evenodd" d="M49.1406 52.2992C49.236 51.6455 49.3517 50.8454 49.4879 49.8989C49.6309 48.9592 49.7841 47.9446 49.9475 46.8551C50.1041 45.7656 50.2744 44.6455 50.4582 43.4947C50.6421 42.3371 50.8123 41.2204 50.9689 40.1445C51.1324 39.0619 51.2856 38.0541 51.4286 37.1212C51.5716 36.1883 51.6907 35.4018 51.7861 34.7618L50.0395 33.9957C49.9033 33.9276 49.842 33.8255 49.8556 33.6893C49.876 33.5531 49.9646 33.4714 50.1212 33.4441L67.5054 30.1654C68.1795 30.0361 68.8026 30.019 69.3746 30.1144C69.9534 30.2097 70.447 30.4072 70.8556 30.7068C71.2574 30.9996 71.557 31.3911 71.7544 31.8814C71.9519 32.3649 72.0064 32.9266 71.9179 33.5667C71.7612 34.6494 71.6353 35.555 71.5399 36.2836C71.4514 37.0122 71.3357 37.6455 71.1927 38.1834C71.0565 38.7282 70.876 39.2185 70.6513 39.6543C70.4198 40.0901 70.0827 40.5531 69.6401 41.0434C69.2588 41.4724 68.8468 41.8128 68.4042 42.0648C67.9616 42.3167 67.5429 42.5108 67.1479 42.647C66.7462 42.7832 66.3955 42.8853 66.0959 42.9534C65.7963 43.0215 65.5954 43.0726 65.4932 43.1066L68.9047 46.753C69.0613 46.9232 69.1601 47.1105 69.2009 47.3148C69.2418 47.5191 69.2282 47.7165 69.1601 47.9072C69.0988 48.0978 68.9933 48.2647 68.8435 48.4077C68.6936 48.5507 68.5064 48.646 68.2817 48.6937L63.6854 49.5619C63.7671 49.2146 63.8079 48.8537 63.8079 48.4792C63.8079 45.844 61.6732 43.7194 59.038 43.7194C56.413 43.7194 54.2783 45.844 54.2783 48.4792C54.2783 49.4291 54.554 50.3177 55.0341 51.0531C54.8843 51.1757 54.7004 51.2574 54.4825 51.2982L49.1406 52.2992ZM55.412 37.4787C55.5891 37.5876 55.7831 37.6966 55.9942 37.8055C56.1985 37.9213 56.3824 38.0336 56.5458 38.1426C56.6479 38.2107 56.7501 38.272 56.8522 38.3264C56.9475 38.3809 57.0463 38.4422 57.1484 38.5103L56.8726 40.4101L64.8498 38.8984C65.1289 38.844 65.2822 38.701 65.3094 38.4694L65.34 38.2243C65.3605 38.1426 65.3741 38.0541 65.3809 37.9587C65.3877 37.8566 65.3979 37.7442 65.4115 37.6217C65.4524 37.3833 65.4899 37.1348 65.5239 36.8761C65.5579 36.6241 65.5954 36.3756 65.6362 36.1304C65.6499 35.9874 65.6703 35.8512 65.6975 35.7219C65.7248 35.5925 65.7452 35.4665 65.7588 35.344C65.8201 35.0988 65.7112 35.0035 65.432 35.058L55.5142 36.9271C55.378 36.9544 55.2997 37.0361 55.2792 37.1723C55.2656 37.3084 55.3099 37.4106 55.412 37.4787Z" fill="#F02C18"/>
<path id="Object 13" d="M72.1729 43.7083C72.2887 42.8367 72.4079 41.9889 72.5304 41.165C72.653 40.3411 72.7688 39.5171 72.8777 38.6932C72.9798 37.9987 73.0786 37.2769 73.1739 36.5278C73.276 35.7856 73.3748 35.057 73.4701 34.342C73.5654 33.6339 73.6608 32.9529 73.7561 32.2992C73.8446 31.6524 73.9297 31.0736 74.0115 30.5629L72.2138 29.807C72.0572 29.7457 71.9925 29.647 72.0197 29.5108C72.047 29.3678 72.1321 29.2861 72.2751 29.2657L80.385 27.7336L79.6904 32.5239C79.5815 33.1845 79.476 33.8688 79.3738 34.577C79.2649 35.2783 79.1627 35.9695 79.0674 36.6504C78.9721 37.3245 78.8801 37.968 78.7916 38.5809C78.7031 39.1937 78.6248 39.7384 78.5567 40.2151L77.2084 41.9617C77.1199 42.0638 77.1097 42.1762 77.1778 42.2988C77.2459 42.4213 77.348 42.469 77.4842 42.4418L86.7279 40.6952C87.0003 40.6475 87.1501 40.5045 87.1773 40.2662L89.1588 26.8756C89.2542 26.324 89.5674 25.9972 90.0985 25.8951L95.3485 24.9043C95.3281 25.0881 95.2804 25.4422 95.2055 25.9666C95.1306 26.4977 95.0387 27.1344 94.9297 27.8766C94.8208 28.6188 94.7016 29.4257 94.5723 30.2973C94.4429 31.1621 94.3101 32.0337 94.1739 32.9121C94.0105 33.9607 93.8437 35.0468 93.6734 36.1704C93.5032 37.2939 93.333 38.4855 93.1627 39.7453C92.9584 41.0118 92.458 42.1217 91.6613 43.075C90.8646 44.0283 89.7683 44.6344 88.3724 44.8931L76.5752 47.1198C75.9079 47.2491 75.2848 47.2662 74.706 47.1708C74.1272 47.0755 73.6335 46.878 73.225 46.5784C72.8096 46.2856 72.5032 45.9009 72.3057 45.4242C72.1082 44.9408 72.064 44.3688 72.1729 43.7083Z" fill="#1E1E1E"/>
<path id="Object 14" d="M94.9092 43.6576C95.0181 42.9427 95.1509 42.0949 95.3075 41.1144C95.4573 40.1338 95.6208 39.0954 95.7978 37.9991C95.968 36.896 96.1417 35.7656 96.3187 34.608C96.489 33.4436 96.6558 32.3303 96.8192 31.2681C96.9826 30.2058 97.1324 29.2253 97.2686 28.3264C97.398 27.4344 97.5069 26.6956 97.5955 26.11L95.8182 25.3439C95.682 25.2826 95.6276 25.1839 95.6548 25.0477C95.682 24.9047 95.7637 24.823 95.8999 24.8026L102.549 23.5463C102.897 23.4782 103.193 23.5633 103.438 23.8016C103.69 24.0399 103.785 24.3259 103.724 24.6596L103.172 28.3877L109.137 22.5146C109.348 22.3308 109.549 22.2218 109.74 22.1878L116.594 20.8906L108.004 29.2355L113.478 38.5813C113.574 38.7379 113.628 38.9149 113.642 39.1124C113.648 39.3031 113.614 39.4767 113.54 39.6333C113.465 39.7899 113.352 39.9329 113.202 40.0623C113.059 40.1849 112.886 40.2666 112.682 40.3075L107.401 41.2982C107.21 40.9646 106.958 40.5117 106.645 39.9398C106.332 39.3678 106.015 38.7856 105.695 38.1931C105.368 37.6075 105.062 37.0526 104.776 36.5283C104.49 36.004 104.279 35.6124 104.143 35.3537L104.296 33.4845C104.309 33.3619 104.255 33.27 104.132 33.2087C104.017 33.1542 103.904 33.1713 103.795 33.2598L102.222 34.6489L101.221 41.6659C101.181 41.9247 101.072 42.1426 100.895 42.3196C100.711 42.4967 100.5 42.6056 100.261 42.6465L94.9092 43.6576Z" fill="#1E1E1E"/>
<path id="Object 15" d="M115.684 35.7725C115.725 35.5342 115.831 35.3333 116.001 35.1699C116.164 35.0064 116.365 34.9009 116.604 34.8532L129.146 32.4836C129.426 32.4495 129.579 32.3134 129.606 32.075L129.923 29.9403C129.97 29.7156 129.858 29.6305 129.586 29.685L120.822 31.3294C120.155 31.4588 119.528 31.4758 118.943 31.3805C118.35 31.2851 117.85 31.0911 117.441 30.7983C117.026 30.5055 116.719 30.1139 116.522 29.6237C116.324 29.1402 116.28 28.5682 116.389 27.9077L116.808 24.915C116.89 24.3158 117.07 23.7336 117.349 23.1684C117.622 22.61 117.976 22.0959 118.411 21.6261C118.847 21.1494 119.365 20.7443 119.964 20.4106C120.556 20.077 121.213 19.842 121.935 19.7059L136.776 16.9072C136.674 17.6018 136.586 18.2316 136.511 18.7968C136.443 19.362 136.368 19.9884 136.286 20.6762C136.211 21.2414 135.901 21.575 135.356 21.6772L121.108 24.3737C120.972 24.4009 120.893 24.4826 120.873 24.6188C120.853 24.755 120.904 24.8537 121.026 24.915L122.558 25.8547L122.477 26.539C122.449 26.7569 122.565 26.842 122.824 26.7944L131.608 25.1397C132.275 25.0103 132.898 24.9933 133.477 25.0886C134.056 25.184 134.55 25.3814 134.958 25.6811C135.373 25.9739 135.68 26.3654 135.877 26.8557C136.075 27.3391 136.119 27.9111 136.01 28.5716L135.591 31.5643C135.489 32.1499 135.312 32.7253 135.06 33.2905C134.815 33.8489 134.485 34.3596 134.069 34.8226C133.661 35.2788 133.174 35.6772 132.609 36.0176C132.037 36.3581 131.383 36.5964 130.648 36.7326L114.857 39.7151L115.684 35.7725Z" fill="#1E1E1E"/>
<path id="Object 16" d="M137.747 28.3467C137.89 27.407 138.036 26.4537 138.186 25.4867C138.329 24.5198 138.469 23.5767 138.605 22.6575C138.748 21.745 138.877 20.887 138.993 20.0835C139.102 19.2732 139.201 18.5787 139.289 17.9999C138.683 17.7003 138.077 17.4585 137.471 17.2747C137.335 17.2066 137.273 17.101 137.287 16.958C137.308 16.8151 137.386 16.7299 137.522 16.7027L143.967 15.4872C144.376 15.4055 144.723 15.5043 145.009 15.7834C145.288 16.0558 145.397 16.3963 145.336 16.8048L144.488 22.3715L153.425 20.6862L154.498 13.4955L160.606 12.3413L157.838 30.7367C157.763 31.2883 157.45 31.6152 156.898 31.7173L151.668 32.708L152.731 25.354L142.118 27.3559C141.982 27.3831 141.904 27.4615 141.883 27.5908C141.863 27.7202 141.904 27.8189 142.006 27.887L143.548 28.8267C143.358 29.7868 143.228 30.6142 143.16 31.3087C143.099 32.0033 143.034 32.5787 142.966 33.0349C142.905 33.4979 142.803 33.8486 142.66 34.0869C142.517 34.3253 142.275 34.4785 141.934 34.5466L136.654 35.5373C136.654 35.4692 136.684 35.2343 136.746 34.8326C136.8 34.4308 136.879 33.9031 136.981 33.2494C137.083 32.6025 137.199 31.8569 137.328 31.0125C137.464 30.1682 137.604 29.2795 137.747 28.3467Z" fill="#1E1E1E"/>
<path id="Object 17" d="M35.9129 49.6836C37.8127 49.6836 39.355 51.2157 39.355 53.1155C39.355 55.0153 37.8127 56.5474 35.9129 56.5474C34.0233 56.5474 32.481 55.0153 32.481 53.1155C32.481 51.2157 34.0233 49.6836 35.9129 49.6836Z" fill="#FF2E17"/>
<path id="Object 18" d="M59.0374 45.0469C60.9372 45.0469 62.4795 46.5892 62.4795 48.4788C62.4795 50.3786 60.9372 51.9107 59.0374 51.9107C57.1478 51.9107 55.6055 50.3786 55.6055 48.4788C55.6055 46.5892 57.1478 45.0469 59.0374 45.0469Z" fill="#FF2E17"/>
<path id="Object 19" d="M52.6131 24.2713L52.0615 22.3204L88.0659 15.2217L52.6131 24.2713Z" fill="#1E1E1E"/>
</g>
</svg>
