<svg width="28" height="28" viewBox="0 0 28 28" fill="none" xmlns="http://www.w3.org/2000/svg">
<g id="people 1">
<g id="Person">
<path id="Vector" d="M17.1109 4.375C17.1109 3.68277 16.9155 3.00608 16.5492 2.43051C16.1829 1.85493 15.6623 1.40633 15.0532 1.14142C14.4441 0.876516 13.7739 0.807205 13.1273 0.942253C12.4807 1.0773 11.8867 1.41064 11.4205 1.90012C10.9544 2.38962 10.6369 3.01325 10.5083 3.69219C10.3797 4.37112 10.4457 5.07485 10.698 5.71439C10.9503 6.35394 11.3775 6.90056 11.9257 7.28515C12.4738 7.66973 13.1183 7.875 13.7776 7.875C14.6616 7.875 15.5095 7.50625 16.1345 6.84988C16.7597 6.1935 17.1109 5.30326 17.1109 4.375ZM13.7776 6.125C13.448 6.125 13.1257 6.02237 12.8516 5.83008C12.5775 5.63779 12.3639 5.36446 12.2378 5.0447C12.1116 4.72493 12.0786 4.37305 12.1429 4.0336C12.2072 3.69412 12.366 3.3823 12.5991 3.13757C12.8321 2.89282 13.1291 2.72615 13.4524 2.65863C13.7757 2.59111 14.1108 2.62576 14.4153 2.75821C14.7199 2.89066 14.9803 3.11497 15.1633 3.40276C15.3465 3.69054 15.4443 4.02888 15.4443 4.375C15.4443 4.83913 15.2687 5.28424 14.9561 5.61245C14.6435 5.94063 14.2196 6.125 13.7776 6.125ZM23.188 14.6618L18.4828 9.05954C18.17 8.6872 17.7852 8.389 17.3541 8.18476C16.9232 7.98055 16.4557 7.87494 15.9828 7.875H11.5724C11.0995 7.87494 10.632 7.98055 10.201 8.18476C9.76993 8.389 9.38521 8.6872 9.07237 9.05954L4.36715 14.6618C3.98505 15.0721 3.77182 15.6236 3.77345 16.1976C3.77506 16.7714 3.99141 17.3216 4.37583 17.7296C4.76026 18.1376 5.28197 18.3705 5.82847 18.3784C6.37499 18.3861 6.90253 18.1681 7.29737 17.7713L8.99527 16.3407L7.27237 23.2182C7.04417 23.7468 7.02533 24.3489 7.21999 24.8923C7.41466 25.4355 7.80689 25.8754 8.31038 26.1149C8.81387 26.3546 9.38741 26.3743 9.90479 26.1699C10.4222 25.9655 10.841 25.5536 11.0692 25.025L13.7776 20.1173L16.4859 25.025C16.7243 25.536 17.1429 25.9293 17.6529 26.1215C18.1629 26.3137 18.7241 26.2898 19.2176 26.0547C19.7111 25.8196 20.0979 25.3919 20.2959 24.8623C20.494 24.3327 20.4879 23.743 20.2787 23.2182L18.5599 16.3407L20.2577 17.7713C20.6527 18.1681 21.1801 18.3861 21.7267 18.3784C22.2732 18.3705 22.7949 18.1376 23.1793 17.7296C23.5637 17.3216 23.7801 16.7714 23.7817 16.1976C23.7833 15.6236 23.5701 15.0721 23.188 14.6618ZM21.9891 16.4959C21.9504 16.5367 21.9044 16.5689 21.8539 16.5908C21.8032 16.613 21.7489 16.6243 21.6943 16.6243C21.6395 16.6243 21.5852 16.613 21.5347 16.5908C21.4841 16.5689 21.4381 16.5367 21.3995 16.4959C21.3776 16.4741 21.3557 16.4522 21.3317 16.4325L17.6317 13.3175C17.4952 13.2031 17.3279 13.1366 17.1533 13.1274C16.9788 13.1183 16.806 13.167 16.6593 13.2666C16.5125 13.3663 16.3995 13.5118 16.3357 13.6826C16.2721 13.8535 16.2612 14.041 16.3047 14.2188L18.688 23.7343C18.7003 23.7852 18.7171 23.8346 18.738 23.882C18.762 23.9343 18.776 23.991 18.7789 24.0488C18.782 24.1067 18.774 24.1647 18.7555 24.2193C18.7369 24.2739 18.7083 24.3242 18.6711 24.367C18.6339 24.4098 18.5891 24.4446 18.5389 24.4691C18.4889 24.4936 18.4347 24.5074 18.3796 24.5097C18.3244 24.512 18.2693 24.5028 18.2176 24.4826C18.1659 24.4623 18.1184 24.4315 18.0781 24.3919C18.0377 24.3523 18.0053 24.3046 17.9828 24.2518C17.9725 24.2281 17.9611 24.205 17.9484 24.1828L14.4984 17.9375C14.4252 17.8049 14.32 17.6949 14.1935 17.6183C14.0669 17.5419 13.9236 17.5015 13.7776 17.5015C13.6316 17.5015 13.4881 17.5419 13.3616 17.6183C13.2351 17.6949 13.13 17.8049 13.0567 17.9375L9.6109 24.1773C9.59821 24.1996 9.58673 24.2227 9.57653 24.2463C9.55339 24.2984 9.52069 24.3452 9.48029 24.3841C9.43989 24.4229 9.39259 24.453 9.34111 24.4727C9.26362 24.5025 9.17945 24.5074 9.09926 24.487C9.01907 24.4665 8.94647 24.4215 8.89069 24.3576C8.8349 24.2938 8.79842 24.214 8.78589 24.1283C8.77335 24.0426 8.78533 23.9551 8.82027 23.8766C8.84127 23.8291 8.85801 23.7797 8.87027 23.7289L11.2505 14.2188C11.2939 14.041 11.283 13.8535 11.2194 13.6826C11.1557 13.5118 11.0426 13.3663 10.8959 13.2666C10.7491 13.167 10.5763 13.1183 10.4018 13.1274C10.2273 13.1366 10.06 13.2031 9.92341 13.3175L6.22341 16.4325C6.19945 16.4522 6.17757 16.4741 6.1557 16.4959C6.11742 16.5383 6.07146 16.5722 6.02051 16.5956C5.96958 16.6191 5.91467 16.6316 5.85907 16.6323C5.80346 16.6331 5.74826 16.6222 5.69673 16.6002C5.64519 16.5784 5.59837 16.5458 5.55901 16.5045C5.51965 16.4633 5.48854 16.4142 5.46755 16.3601C5.44655 16.3059 5.43607 16.2481 5.43673 16.1896C5.43739 16.1312 5.44918 16.0737 5.47141 16.0201C5.49362 15.9666 5.52582 15.9183 5.56611 15.878C5.57861 15.8648 5.59007 15.8518 5.60153 15.8375L10.3224 10.2167C10.4788 10.0307 10.6712 9.88166 10.8867 9.77964C11.1022 9.67761 11.336 9.6249 11.5724 9.625H15.9828C16.2192 9.6249 16.4529 9.67761 16.6684 9.77964C16.884 9.88166 17.0763 10.0307 17.2328 10.2167L21.9536 15.8375C21.9651 15.8518 21.9765 15.8648 21.9891 15.878C22.0669 15.96 22.1107 16.0712 22.1107 16.1869C22.1107 16.3029 22.0669 16.4139 21.9891 16.4959Z" fill="black"/>
</g>
</g>
</svg>
