<svg width="28" height="28" viewBox="0 0 28 28" fill="none" xmlns="http://www.w3.org/2000/svg">
<g id="price">
<g id="LineSegments">
<path id="Vector" d="M25.7468 3.64869C25.4372 3.32361 25.0697 3.06573 24.6652 2.8898C24.2608 2.71384 23.8272 2.62329 23.3895 2.62329C22.9516 2.62329 22.5181 2.71384 22.1136 2.8898C21.7092 3.06573 21.3417 3.32361 21.0321 3.64869C20.7225 3.97372 20.4769 4.35959 20.3093 4.78428C20.1419 5.20897 20.0556 5.66416 20.0556 6.12385C20.0556 6.58355 20.1419 7.03874 20.3093 7.46343C20.4769 7.88812 20.7225 8.274 21.0321 8.59901C21.0624 8.63073 21.0947 8.66135 21.1259 8.69198L18.352 14.1016C17.5063 13.8851 16.6135 14.0224 15.8624 14.4845L13.7603 12.2773C14.1739 11.5434 14.318 10.6761 14.1656 9.83851C14.0133 9.00089 13.5749 8.25048 12.9329 7.72822C12.2909 7.20597 11.4893 6.94779 10.6788 7.00221C9.86829 7.05662 9.10459 7.41985 8.53112 8.02369C8.22151 8.34872 7.97591 8.73458 7.80835 9.15928C7.64079 9.58396 7.55455 10.0392 7.55455 10.4989C7.55455 10.9586 7.64079 11.4137 7.80835 11.8384C7.97591 12.2631 8.22151 12.649 8.53112 12.974C8.56133 13.0057 8.59257 13.0364 8.62383 13.067L5.84987 18.4778C5.29307 18.3338 4.71032 18.3432 4.15796 18.5049C3.6056 18.6666 3.10232 18.9752 2.69675 19.4009C2.23065 19.8904 1.91325 20.5141 1.78469 21.1929C1.65615 21.8719 1.7222 22.5756 1.97451 23.2151C2.22683 23.8546 2.65407 24.4012 3.20221 24.7857C3.75036 25.1702 4.3948 25.3754 5.05404 25.3754C5.71328 25.3754 6.35771 25.1702 6.90585 24.7857C7.454 24.4012 7.88125 23.8546 8.13356 23.2151C8.38588 22.5756 8.45193 21.8719 8.32337 21.1929C8.19483 20.5141 7.87743 19.8904 7.41133 19.4009C7.38112 19.3691 7.34883 19.3385 7.31757 19.308L10.0915 13.8982C10.3524 13.9653 10.6199 13.9995 10.8884 13.9999C11.4835 14.0007 12.068 13.8342 12.5811 13.5176L14.6832 15.7248C14.3668 16.2887 14.2072 16.9345 14.2228 17.5889C14.2384 18.2433 14.4284 18.88 14.7712 19.4267C15.1141 19.9732 15.5961 20.4081 16.1625 20.6815C16.7288 20.9549 17.3569 21.0561 17.9753 20.9737C18.5937 20.8911 19.1777 20.6282 19.6609 20.2146C20.1441 19.801 20.5073 19.2535 20.7091 18.6343C20.9108 18.0149 20.9431 17.3485 20.8023 16.711C20.6615 16.0733 20.3531 15.4899 19.9124 15.027C19.8821 14.9953 19.8509 14.9646 19.8196 14.9341L22.5936 9.52432C22.8537 9.59092 23.1207 9.6247 23.3884 9.62494C24.0476 9.62484 24.6919 9.41955 25.2399 9.03503C25.788 8.6505 26.2151 8.10401 26.4673 7.46463C26.7197 6.82524 26.7857 6.12167 26.6573 5.44285C26.5289 4.76403 26.2116 4.14043 25.7457 3.65089L25.7468 3.64869ZM6.23216 23.1141C5.91943 23.4424 5.49532 23.6267 5.05315 23.6267C4.61097 23.6265 4.18695 23.442 3.87435 23.1136C3.56176 22.7853 3.3862 22.3399 3.38629 21.8757C3.38639 21.4113 3.56213 20.9661 3.87487 20.638C4.02972 20.4754 4.21355 20.3465 4.41584 20.2586C4.61813 20.1706 4.83495 20.1254 5.05388 20.1254C5.27283 20.1256 5.48961 20.1708 5.69188 20.2588C5.89413 20.3469 6.07791 20.4758 6.23268 20.6385C6.38747 20.8011 6.51023 20.9941 6.59397 21.2065C6.67772 21.4189 6.72079 21.6465 6.72075 21.8764C6.72069 22.1063 6.67752 22.3339 6.59369 22.5463C6.50987 22.7587 6.38701 22.9516 6.23216 23.1141ZM9.70924 11.7392C9.55444 11.5767 9.43164 11.3837 9.34785 11.1714C9.26408 10.959 9.22096 10.7314 9.22096 10.5016C9.22096 10.2717 9.26408 10.0441 9.34785 9.83181C9.43164 9.61945 9.55444 9.42652 9.70924 9.26401C9.94235 9.0193 10.2393 8.85267 10.5626 8.78518C10.8859 8.71769 11.221 8.75238 11.5255 8.88483C11.83 9.0173 12.0903 9.24161 12.2734 9.52938C12.4565 9.81716 12.5543 10.1555 12.5543 10.5016C12.5543 10.8477 12.4565 11.186 12.2734 11.4738C12.0903 11.7616 11.83 11.9859 11.5255 12.1183C11.221 12.2508 10.8859 12.2855 10.5626 12.218C10.2393 12.1505 9.94235 11.9839 9.70924 11.7392ZM18.7343 18.7391C18.4216 19.0674 17.9977 19.2518 17.5556 19.2518C17.1135 19.2518 16.6896 19.0674 16.3769 18.7391C16.0644 18.411 15.8888 17.9658 15.8888 17.5015C15.8888 17.0374 16.0644 16.5922 16.3769 16.2641C16.6896 15.9358 17.1135 15.7514 17.5556 15.7514C17.9977 15.7514 18.4216 15.9358 18.7343 16.2641C19.0468 16.5922 19.2224 17.0374 19.2224 17.5015C19.2224 17.9658 19.0468 18.411 18.7343 18.7391ZM24.5676 7.36417C24.2545 7.69224 23.8303 7.87633 23.388 7.87592C22.9457 7.87552 22.5217 7.69065 22.2092 7.36198C21.8968 7.03332 21.7215 6.58778 21.7219 6.1234C21.7223 5.65901 21.8983 5.21381 22.2113 4.88573C22.3661 4.72321 22.55 4.59431 22.7523 4.50637C22.9545 4.41845 23.1713 4.37322 23.3904 4.37326C23.6093 4.37332 23.8261 4.41865 24.0283 4.50667C24.2305 4.5947 24.4144 4.72368 24.5692 4.88628C24.7239 5.04888 24.8467 5.24188 24.9304 5.45429C25.0141 5.66671 25.0572 5.89435 25.0572 6.12424C25.0572 6.35414 25.014 6.58176 24.9301 6.79413C24.8463 7.00651 24.7235 7.19946 24.5687 7.36198L24.5676 7.36417Z" fill="black"/>
</g>
</g>
</svg>
