<svg width="28" height="28" viewBox="0 0 28 28" fill="none" xmlns="http://www.w3.org/2000/svg">
<g id="support 1">
<g id="Headset">
<path id="Vector" d="M21.4743 5.97843C20.4774 4.9212 19.2917 4.0808 17.9851 3.50536C16.6785 2.92993 15.2766 2.63077 13.8597 2.625H13.7774C10.9042 2.625 8.14875 3.82343 6.11711 5.95666C4.08545 8.08989 2.94409 10.9832 2.94409 14V20.125C2.94409 20.8212 3.20748 21.4889 3.67632 21.9811C4.14516 22.4735 4.78105 22.75 5.44409 22.75H7.11076C7.7738 22.75 8.40968 22.4735 8.87852 21.9811C9.34736 21.4889 9.61076 20.8212 9.61076 20.125V15.75C9.61076 15.0538 9.34736 14.3861 8.87852 13.8938C8.40968 13.4016 7.7738 13.125 7.11076 13.125H4.64825C4.80897 11.3005 5.46163 9.562 6.52975 8.11311C7.59785 6.66422 9.03717 5.56503 10.679 4.94437C12.3208 4.3237 14.0971 4.20728 15.7997 4.60874C17.5022 5.01021 19.0606 5.91293 20.2919 7.21109C21.7971 8.79955 22.7229 10.8927 22.9077 13.125H20.4441C19.781 13.125 19.1451 13.4016 18.6763 13.8938C18.2075 14.3861 17.9441 15.0538 17.9441 15.75V20.125C17.9441 20.8212 18.2075 21.4889 18.6763 21.9811C19.1451 22.4735 19.781 22.75 20.4441 22.75H22.9441C22.9441 23.4462 22.6807 24.1139 22.2118 24.6061C21.743 25.0985 21.1071 25.375 20.4441 25.375H14.6107C14.3897 25.375 14.1778 25.4671 14.0215 25.6313C13.8653 25.7954 13.7774 26.0179 13.7774 26.25C13.7774 26.4821 13.8653 26.7046 14.0215 26.8687C14.1778 27.0329 14.3897 27.125 14.6107 27.125H20.4441C21.5491 27.125 22.609 26.6641 23.3903 25.8436C24.1718 25.0232 24.6107 23.9103 24.6107 22.75V14C24.6162 12.512 24.3419 11.0376 23.8037 9.66108C23.2655 8.2846 22.4739 7.03315 21.4743 5.97843ZM7.11076 14.875C7.33177 14.875 7.54373 14.9671 7.70001 15.1313C7.85629 15.2954 7.94409 15.5179 7.94409 15.75V20.125C7.94409 20.3571 7.85629 20.5796 7.70001 20.7437C7.54373 20.9079 7.33177 21 7.11076 21H5.44409C5.22308 21 5.01112 20.9079 4.85484 20.7437C4.69856 20.5796 4.61076 20.3571 4.61076 20.125V14.875H7.11076ZM20.4441 21C20.223 21 20.0111 20.9079 19.8549 20.7437C19.6986 20.5796 19.6107 20.3571 19.6107 20.125V15.75C19.6107 15.5179 19.6986 15.2954 19.8549 15.1313C20.0111 14.9671 20.223 14.875 20.4441 14.875H22.9441V21H20.4441Z" fill="black"/>
</g>
</g>
</svg>
